<svg xmlns="http://www.w3.org/2000/svg" width="512" height="512" enable-background="new 0 0 512 512" viewBox="0 0 512 512" id="corn">
  <ellipse cx="256" cy="220.552" fill="#FFCB29" rx="80.52" ry="188.552"></ellipse>
  <path fill="#4CAF4E" d="M356.756,169.027c-1.586-0.882-3.528-0.834-5.069,0.125c-3.378,2.102-83.005,52.268-107.858,121.321
	c-4.806,13.33-7.243,26.656-7.243,39.608v142.486c0,1.549,0.718,3.011,1.944,3.957c3.379,2.609,6.799,5.148,10.166,7.547
	c0.868,0.618,1.884,0.928,2.901,0.928c1.014,0,2.029-0.308,2.896-0.924c3.495-2.483,6.8-4.919,10.102-7.442
	c35.38-26.986,94.733-81.91,94.733-146.552V173.397C359.328,171.582,358.344,169.909,356.756,169.027z"></path>
  <path fill="#8BC349" d="M252.991,289.908c-28.201-55.594-90.058-94.521-92.678-96.151c-1.542-0.959-3.482-1.008-5.07-0.125
	c-1.587,0.882-2.572,2.555-2.572,4.371v144.382c0,59.028,53.793,109.381,85.858,134.142c3.379,2.609,6.799,5.148,10.166,7.547
	c0.868,0.618,1.884,0.928,2.901,0.928c1.014,0,2.029-0.308,2.896-0.924c3.495-2.483,6.8-4.919,10.106-7.445
	c1.238-0.946,1.964-2.415,1.964-3.973V342.384C266.563,325.306,261.996,307.649,252.991,289.908z"></path>
</svg>
